# xmcd
#
# Track frame offsets:
#	150
#	16060
#	26971
#	36819
#	49164
#	60926
#	73120
#	87942
#	104563
#	120644
#	133953
#
# Disc length: 2035 seconds
#
# Revision: 0
# Processed by: cddbd v1.5.2PL0 Copyright (c) Steve Scherf et al.
# Submitted via: EasyCDDAExtractor 12.0.1.1
#
DISCID=9707f10b
DTITLE=Various Artist - Country Hits Classics
DYEAR=2008
DGENRE=Country
TTITLE0=B.J. Thomas - (Hey, Won't You Play) Another Somebody Done Somebody Wro
TTITLE0=ng Song
TTITLE1=Mickey Gilley - You Don't Know Me
TTITLE2=Lynn Anderson - What A Man My Man Is
TTITLE3=Johnny Paycheck - Take This Job And Shove It
TTITLE4=Donna Fargo - The Happiest Girl In The Whole USA
TTITLE5=Moe Bandy - Just Good Old Boys
TTITLE6=Jeanne Pruett - Satin Sheets
TTITLE7=Exile - Hang Onto Your Heart
TTITLE8=Juice Newton - Hurt
TTITLE9=T.G. Sheppard - I'll Be Coming Back For More
TTITLE10=Exile - I Can't Get Close Enough
EXTD=
EXTT0=
EXTT1=
EXTT2=
EXTT3=
EXTT4=
EXTT5=
EXTT6=
EXTT7=
EXTT8=
EXTT9=
EXTT10=
PLAYORDER=
